<svg width="432" height="442" viewBox="0 0 432 442" fill="none" xmlns="http://www.w3.org/2000/svg">
<path d="M328.119 394.804C327.953 394.843 327.811 394.878 327.692 394.907C327.575 394.936 327.482 394.959 327.413 394.978C321.443 388.058 322.873 380.428 324.733 372.428C336.233 322.898 348.683 273.618 362.713 224.748C362.776 224.526 362.839 224.303 362.903 224.081C364.113 219.819 365.345 215.481 369.603 213.058C371.613 211.918 373.943 210.688 376.123 212.348C376.888 212.925 382.201 214.879 388.448 217.176L388.451 217.177C392.93 218.824 397.89 220.648 401.996 222.267C401.547 221.404 400.903 220.606 400.012 219.883C399.633 219.647 399.282 219.397 398.957 219.134C398.437 218.81 397.855 218.505 397.205 218.219C394.73 217.128 394.485 214.643 394.245 212.196L394.226 212.009L394.205 211.799C390.895 177.879 379.005 147.309 358.475 120.059C356.105 116.909 353.965 115.439 349.795 116.649C342.635 118.719 336.775 115.509 331.815 110.609C320.655 99.6089 309.055 89.1788 295.475 81.1889C274.515 68.8588 252.065 61.3588 227.685 59.6888C178.945 56.3488 137.595 72.2789 103.225 106.809C99.7053 110.349 96.1153 113.829 91.4353 115.869C87.7853 117.459 83.9853 117.819 80.2453 116.539C77.2553 115.519 75.3353 116.239 73.4253 118.739C53.1353 145.239 40.7753 174.949 37.0853 208.149C36.5153 213.279 35.6953 218.069 30.3853 220.549C29.8813 220.785 29.4713 221.051 29.1404 221.34C33.7432 219.443 40.6831 217.041 46.2263 215.122C50.5612 213.621 54.042 212.417 54.8829 211.98C57.1529 210.8 59.4529 212.07 61.4029 213.36C65.1429 215.83 66.4129 219.84 67.6029 223.85C76.2029 252.84 83.7029 282.12 91.0529 311.45C91.8087 314.468 92.5676 317.486 93.3265 320.503C98.2802 340.2 103.234 359.897 107.353 379.79C107.573 380.906 107.747 382.029 107.858 382.74C107.893 382.966 107.921 383.15 107.943 383.28C108.103 386.47 107.573 388.56 106.203 390.32C104.783 392.14 103.213 393.53 100.683 394.03C81.4912 397.86 73.4575 399.303 70.8791 398.722C70.0917 399.395 68.4979 399.392 65.8653 398.919C45.5353 395.249 30.7453 383.909 24.1753 364.449C14.4053 335.459 7.48526 305.619 1.29525 275.659C-0.224744 268.309 0.0252538 260.689 2.30525 253.439C3.78526 248.719 4.15525 244.029 3.86525 239.179C1.52525 199.489 10.2953 162.289 29.0553 127.349C35.0453 116.189 42.1153 105.729 50.0553 95.8589C50.1217 95.7761 50.1881 95.6938 50.2544 95.6116C51.4455 94.1357 52.5742 92.7371 52.1953 90.5489C50.8753 82.8689 53.9653 76.4489 58.6152 70.7789C72.1553 54.2589 88.7053 41.2088 106.875 30.2188C134.505 13.4988 164.535 3.72885 196.655 0.898849C235.635 -2.54115 272.835 4.49885 307.955 21.7488C331.745 33.4388 352.675 48.9389 370.515 68.7888C376.21 75.1238 375.298 81.3949 374.349 87.919C374.198 88.9539 374.047 89.9951 373.921 91.0439C377.099 92.6739 380.749 95.8287 382.345 98.3189C392.877 114.761 401.988 131.738 409.03 149.5C409.044 149.478 409.06 149.458 409.075 149.438C409.46 150.478 409.846 151.529 410.232 152.592C411.82 156.762 413.294 160.975 414.644 165.236C422.458 188.697 429.16 215.564 427.765 239.177C427.475 244.017 427.835 248.707 429.325 253.438C431.605 260.688 431.855 268.307 430.335 275.657C424.145 305.617 417.225 335.457 407.455 364.448C400.885 383.908 386.095 395.247 365.765 398.917C364.425 399.158 363.353 399.277 362.521 399.247C360.991 399.26 359.466 398.944 357.955 397.979C356.739 397.207 355.577 397.838 354.475 398.438C354.235 398.568 353.999 398.696 353.765 398.809C325.975 412.219 296.765 420.829 266.165 424.739C264.025 425.009 261.855 425.109 259.705 425.169C256.055 425.269 252.945 426.229 250.605 429.369C248.595 432.079 245.675 433.829 242.595 435.159C224.205 443.069 205.715 443.149 187.575 434.779C179.925 431.249 174.825 425.119 175.585 415.839C176.275 407.339 181.735 402.219 188.915 399.219C206.465 391.879 224.235 392.279 241.865 399.189C245.285 400.529 248.525 402.579 250.645 405.589C253.145 409.139 256.225 410.189 260.405 410.079C266.565 409.909 272.575 409.709 278.455 407.289C281.099 406.202 283.96 406.069 286.825 405.936C289.812 405.797 292.804 405.659 295.565 404.439C299.886 402.534 304.442 401.443 308.996 400.353C313.454 399.286 317.911 398.219 322.145 396.389C323.299 395.888 324.55 395.62 325.8 395.351C326.348 395.234 326.896 395.116 327.435 394.979C327.584 394.94 327.733 394.902 327.882 394.864C327.961 394.844 328.04 394.824 328.119 394.804Z" fill="#FF0000"/>
</svg>
