<svg width="511" height="343" viewBox="0 0 511 343" fill="none" xmlns="http://www.w3.org/2000/svg">
<path d="M53.5739 19.835C51.9096 25.3245 52.7315 30.1049 50.4937 39.94L47.6876 41.3979C40.8678 45.4158 28.8127 76.4312 21.2372 110.093C11.6845 152.541 4.80409 179.191 1.45663 227.685C-0.706778 258.999 5.06453 296.504 8.60889 311.876C10.8181 321.458 12.5253 328.713 20.0116 337.514C23.389 341.484 43.2069 343.952 46.6152 340.733L47.4253 339.157L57.312 338.689C65.024 337.749 68.8298 334.626 72.5408 327.169C86.4972 299.125 92.591 281.316 106.693 262.935C130.494 233.682 148.587 225.191 190.746 226.305H313.906C360.772 223.938 382.284 231.616 408.427 266.817L410.694 269.968L413.403 274.004L414.785 276.382L416.191 278.595L423.373 292.74L442.102 331.023C446.005 336.703 449.213 338.208 456.9 338.912L465.108 339.208V339.431L465.37 340.231L465.816 340.781L466.275 341.188L467.035 341.568L467.887 341.804L468.661 341.952L469.526 342.105L470.26 342.183H471.124L477.337 341.952C491.526 341.359 496.997 335.118 501.623 321.451C510.77 290.862 511.523 264.41 510.77 226.83C508.608 183.894 491.163 84.897 468.562 45.888C466.45 42.5155 464.876 41.3441 461.637 39.7446L459.034 20.4815C457.281 14.8227 453.669 12.4446 445.862 10.6417C442.26 8.53104 439.934 7.53465 434.565 6.16435C418.266 3.60602 408.897 2.2594 392.134 0.645735C388.081 0.645735 386.42 1.56566 386.303 6.16435V23.1888C377.558 21.3615 372.701 20.2817 363.656 19.5965L362.77 18.7782C279.677 13.3664 233.046 13.3927 149.261 18.7782L148.782 19.3769L126.18 22.8399V6.34641C126.18 1.77179 123.921 -0.0290565 118.37 0.614676C104.966 2.16924 97.432 3.06424 83.638 5.10056C76.3676 6.05849 70.8238 7.59324 66.2874 10.705C59.1017 12.3292 55.2383 14.3455 53.5739 19.835Z" fill="#FF0000"/>
</svg>
